<svg xmlns="http://www.w3.org/2000/svg" xmlns:xlink="http://www.w3.org/1999/xlink" width="75.74" height="116.76" viewBox="0 0 75.74 116.76"><defs><clipPath id="clip-path"><rect id="Rectangle_2" data-name="Rectangle 2" width="75.74" height="116.76" fill="#1e1e1e"/></clipPath></defs><g id="logo" clip-path="url(#clip-path)"><path id="Path_1" data-name="Path 1" d="M18.1,88.3c-.7-.755-1.36-1.545-1.983-2.362A32.628,32.628,0,0,1,9.7,70.419l-.12-.9A18.139,18.139,0,1,0,24.256,38.237a19.071,19.071,0,0,0-2.4-.162h-.01A17.939,17.939,0,0,0,11.956,41.1a21.147,21.147,0,0,0-4.279,3.769A30.353,30.353,0,0,0,1.415,56.507,37.587,37.587,0,0,0,2.326,79.65h0c.018.048.038.1.056.144A36.74,36.74,0,0,0,9.566,91.681c.8.893,1.645,1.745,2.523,2.561a37.834,37.834,0,0,0,25.791,10.089V98.379A32.1,32.1,0,0,1,18.1,88.3" transform="translate(-0.011 -29.118)" fill="#1e1e1e"/><path id="Path_2" data-name="Path 2" d="M173.655,16.036c.7.755,1.36,1.545,1.983,2.362a32.891,32.891,0,0,1,4.026,6.875,32.562,32.562,0,0,1,2.387,8.641l.12.9A18.139,18.139,0,1,0,167.5,66.095a19.078,19.078,0,0,0,2.4.162h.01A17.939,17.939,0,0,0,179.8,63.23a21.148,21.148,0,0,0,4.279-3.769,30.353,30.353,0,0,0,6.262-11.637,37.589,37.589,0,0,0-.911-23.142h0c-.018-.048-.038-.1-.056-.144a36.737,36.737,0,0,0-7.187-11.888c-.8-.893-1.645-1.745-2.523-2.561A37.834,37.834,0,0,0,153.873,0V5.952a32.1,32.1,0,0,1,19.783,10.083" transform="translate(-116.002)" fill="#1e1e1e"/><path id="Path_3" data-name="Path 3" d="M5.655,443.733c1.885,0,2.416-1.019,2.416-3.494,0-2.434-.574-3.453-2.437-3.453h-.4v6.947Zm.013-10.753c4.67,0,7.608,2.787,7.608,7.259,0,3.6-1.911,7.3-7.712,7.3H0V432.98Z" transform="translate(0 -331.118)" fill="#1e1e1e"/><path id="Path_4" data-name="Path 4" d="M7.741,363.6a1.713,1.713,0,0,0,1.733-1.788,1.468,1.468,0,0,0-1.544-1.519H5.236V363.6Zm1.382-7.05c3.414,0,5.592,2.2,5.592,5.157,0,2.787-2.031,5.721-6.64,5.721H5.236v3.681H0V356.551Z" transform="translate(0 -272.67)" fill="#1e1e1e"/><path id="Path_5" data-name="Path 5" d="M207.813,369.828c-5.09,0-8.253-3.265-8.253-7.862,0-4.575,3.143-7.528,8.127-7.528,4.23,0,7.414,2.141,6.618,7.113h-4.251a2.474,2.474,0,0,0-2.492-2.662c-1.571,0-2.681,1.165-2.681,3.1,0,2.038,1.319,3.2,3.434,3.2a9.864,9.864,0,0,0,4.379-1.269l1.989,3.785a12.206,12.206,0,0,1-6.87,2.122" transform="translate(-152.612 -271.053)" fill="#1e1e1e"/><path id="Path_6" data-name="Path 6" d="M214.89,446.281c-5.09,0-8.253-3.265-8.253-7.862,0-4.575,3.143-7.528,8.127-7.528,4.23,0,7.414,2.141,6.618,7.113h-4.252a2.473,2.473,0,0,0-2.492-2.662c-1.571,0-2.681,1.165-2.681,3.1,0,2.038,1.319,3.2,3.434,3.2a9.865,9.865,0,0,0,4.379-1.268l1.989,3.785a12.205,12.205,0,0,1-6.869,2.122" transform="translate(-158.024 -329.52)" fill="#1e1e1e"/><path id="Path_7" data-name="Path 7" d="M131.815,365.889c.544-1.423,1.141-2.969,1.719-4.431.578,1.463,1.175,3.008,1.719,4.431Zm5.386,5.221h5.276a121.284,121.284,0,0,0-5.86-14.559H130.45a121.277,121.277,0,0,0-5.86,14.559h5.276c.036-.122.294-.829.683-1.872h5.969c.389,1.042.647,1.75.683,1.872" transform="translate(-95.279 -272.67)" fill="#1e1e1e"/><rect id="Rectangle_1" data-name="Rectangle 1" width="5.119" height="14.558" transform="translate(14.564 101.862)" fill="#1e1e1e"/><path id="Path_8" data-name="Path 8" d="M277.236,436.786h.153v10.752h5.12V436.786h3l.043-3.806h-11.2l.043,3.806Z" transform="translate(-209.808 -331.118)" fill="#1e1e1e"/><path id="Path_9" data-name="Path 9" d="M282.825,360.294h-6.69V362h6.271l-.1,3.432h-6.166v1.934h6.773v3.744H270.9V356.55h12.009Z" transform="translate(-207.168 -272.669)" fill="#1e1e1e"/><path id="Path_10" data-name="Path 10" d="M79.431,360.294h-6.69V362h6.271l-.1,3.432H72.741v1.934h6.773v3.744H67.506V356.55H79.515Z" transform="translate(-51.624 -272.669)" fill="#1e1e1e"/><path id="Path_11" data-name="Path 11" d="M97.642,439.875h-.933V436.7h.974c.941,0,1.38.5,1.38,1.5,0,.955-.481,1.682-1.422,1.682m7.443,3.876a2.574,2.574,0,0,1-2.821-1.944,5.654,5.654,0,0,0,1.966-4.382c0-3.281-2.489-4.444-5.563-4.444H91.481v14.537h5.228V443.26h.451c1.192,3,2.929,5.318,7.792,4.353Z" transform="translate(-69.959 -331.118)" fill="#1e1e1e"/><path id="Path_12" data-name="Path 12" d="M165.711,436.723h-5.761v1.706h5.342l-.1,3.432h-5.238v1.934h5.845v3.744H154.713V432.979h11.081Z" transform="translate(-118.316 -331.118)" fill="#1e1e1e"/></g></svg>