<?xml version="1.0" encoding="UTF-8"?><svg xmlns="http://www.w3.org/2000/svg" id="Layer_2" viewBox="0 0 860 207.68"><defs><style>.cls-1{fill:#002554;}.cls-2{fill:#70d44b;}</style></defs><g id="Layer_1-2"><g><g><polygon class="cls-1" points="112.26 0 117.76 16.93 135.56 16.93 121.16 27.39 126.66 44.33 112.26 33.86 97.86 44.33 103.36 27.39 88.96 16.93 106.76 16.93 112.26 0"/><polygon class="cls-1" points="168.35 37.59 173.37 53.04 189.63 53.04 176.48 62.6 181.5 78.06 168.35 68.5 155.2 78.06 160.22 62.6 147.07 53.04 163.33 53.04 168.35 37.59"/><polygon class="cls-1" points="162.15 153.57 166.22 166.08 179.38 166.08 168.73 173.82 172.8 186.33 162.15 178.6 151.51 186.33 155.57 173.82 144.93 166.08 158.09 166.08 162.15 153.57"/><polygon class="cls-1" points="123.79 207.68 114.42 200.82 105.01 207.62 108.63 196.59 99.27 189.73 110.88 189.77 114.5 178.74 118.05 189.8 129.66 189.84 120.24 196.63 123.79 207.68"/><polygon class="cls-1" points="204.39 113.96 192.4 122.47 196.79 136.51 184.99 127.74 173 136.25 177.69 122.31 165.89 113.54 180.6 113.7 185.29 99.76 189.68 113.8 204.39 113.96"/><path class="cls-2" d="M14.53,101.73c2.58,55,50.42,83.94,50.42,83.94,16.34-21.01,21.58-40.82,14.31-62.43-3.12-9.27-8.08-17.78-13.42-25.92-7.81-11.9-17.55-23.51-14.95-38.7,1.54-8.99,6.45-17.12,11.47-24.56,4.05-6.01,8.56-11.87,13.6-17.09,0,0,0-.01,.01-.02-.13,.03-.26,.07-.4,.09-1.76,.36-3.5,.79-5.24,1.25-.68,.18-1.35,.38-2.02,.57-1.36,.4-2.72,.83-4.06,1.28-.51,.17-1.02,.33-1.53,.52-1.83,.66-3.64,1.38-5.42,2.15-.32,.14-.63,.29-.94,.43-1.68,.75-3.35,1.54-4.98,2.39-.18,.09-.36,.18-.54,.28-1.62,.86-3.21,1.77-4.78,2.72-.85,.51-1.67,1.05-2.51,1.59-.63,.41-1.27,.82-1.89,1.25-1.09,.74-2.16,1.49-3.21,2.28-.11,.08-.21,.16-.31,.24C15.01,51.31,0,78.88,0,109.99c0,47.87,35.45,87.45,81.52,93.96,.36,.05,.73,.09,1.1,.14C0,169.82,14.53,101.73,14.53,101.73Z"/></g><g><path class="cls-1" d="M293.21,69.42h-13.15v29.42h-11.9V26.33h25.04c17.22,0,25.67,9.81,25.67,21.6,0,10.33-6.78,21.49-25.67,21.49Zm0-9.7c9.29,0,13.46-4.49,13.46-11.79s-4.17-11.9-13.46-11.9h-13.15v23.69h13.15Z"/><path class="cls-1" d="M361.45,84.03h-30.36l-5.22,14.82h-12.42l25.98-72.62h13.77l25.98,72.62h-12.52l-5.22-14.82Zm-15.13-43.41l-11.9,33.7h23.69l-11.79-33.7Z"/><path class="cls-1" d="M413.42,26.33c17.22,0,25.67,9.91,25.67,21.7,0,8.56-4.59,17.74-16.8,20.76l17.95,30.05h-14.19l-16.69-29.01h-9.08v29.01h-11.9V26.33h25.04Zm0,9.7h-13.15v24.31h13.15c9.29,0,13.46-5.11,13.46-12.31s-4.17-12-13.46-12Z"/><path class="cls-1" d="M500.13,26.33h12.52l-27.23,72.52h-13.77l-27.34-72.52h12.73l21.49,60.31,21.6-60.31Z"/><path class="cls-1" d="M549.59,84.03h-30.36l-5.22,14.82h-12.42l25.98-72.62h13.77l25.98,72.62h-12.52l-5.22-14.82Zm-15.13-43.41l-11.9,33.7h23.69l-11.79-33.7Z"/><path class="cls-1" d="M560.23,26.33h50.61v9.7h-19.3v62.81h-11.89V36.03h-19.41v-9.7Z"/><path class="cls-1" d="M620.75,26.33h11.9V98.84h-11.9V26.33Z"/><path class="cls-1" d="M268.17,111.6h40.7v9.26h-29.36v20.4h22.89v9.26h-22.89v30.25h-11.35V111.6Z"/><path class="cls-1" d="M346.99,181.46c-19.51,0-35.33-14.63-35.33-35.43s15.82-35.33,35.33-35.33,35.33,14.63,35.33,35.33-15.62,35.43-35.33,35.43Zm0-9.85c13.73,0,23.69-9.95,23.69-25.58s-9.95-25.38-23.69-25.38-23.69,9.75-23.69,25.38,9.95,25.58,23.69,25.58Z"/><path class="cls-1" d="M391.38,111.6h11.35v44.09c0,10.75,6.07,15.82,15.62,15.82s15.72-5.08,15.72-15.82v-44.09h11.35v43.89c0,17.62-12.74,25.98-27.17,25.98s-26.87-8.36-26.87-25.98v-43.89Z"/><path class="cls-1" d="M514.98,111.5v69.27h-11.34l-34.14-51.65v51.65h-11.35V111.5h11.35l34.14,51.55v-51.55h11.34Z"/><path class="cls-1" d="M587.24,146.43c0,21.3-14.53,34.33-36.72,34.33h-22.59V111.6h22.59c22.19,0,36.72,13.43,36.72,34.83Zm-36.72,25.08c16.32,0,25.08-9.36,25.08-25.08s-8.76-25.58-25.08-25.58h-11.25v50.66h11.25Z"/><path class="cls-1" d="M634.21,166.63h-28.96l-4.98,14.13h-11.84l24.78-69.27h13.14l24.78,69.27h-11.94l-4.97-14.13Zm-14.43-41.4l-11.35,32.15h22.59l-11.25-32.15Z"/><path class="cls-1" d="M645.13,111.6h48.27v9.26h-18.41v59.91h-11.34v-59.91h-18.51v-9.26Z"/><path class="cls-1" d="M702.86,111.6h11.35v69.17h-11.35V111.6Z"/><path class="cls-1" d="M758.69,181.46c-19.51,0-35.33-14.63-35.33-35.43s15.82-35.33,35.33-35.33,35.33,14.63,35.33,35.33-15.62,35.43-35.33,35.43Zm0-9.85c13.73,0,23.69-9.95,23.69-25.58s-9.95-25.38-23.69-25.38-23.69,9.75-23.69,25.38,9.95,25.58,23.69,25.58Z"/><path class="cls-1" d="M860,111.5v69.27h-11.34l-34.14-51.65v51.65h-11.35V111.5h11.35l34.14,51.55v-51.55h11.34Z"/></g></g></g></svg>