<?xml version="1.0" encoding="UTF-8"?><!ENTITY ns_extend "http://ns.adobe.com/Extensibility/1.0/"><!ENTITY ns_ai "http://ns.adobe.com/AdobeIllustrator/10.0/"><!ENTITY ns_graphs "http://ns.adobe.com/Graphs/1.0/"><!ENTITY ns_vars "http://ns.adobe.com/Variables/1.0/"><!ENTITY ns_imrep "http://ns.adobe.com/ImageReplacement/1.0/"><!ENTITY ns_sfw "http://ns.adobe.com/SaveForWeb/1.0/"><!ENTITY ns_custom "http://ns.adobe.com/GenericCustomNamespace/1.0/"><!ENTITY ns_adobe_xpath "http://ns.adobe.com/XPath/1.0/">]><svg xmlns:x="&ns_extend;" xmlns:i="&ns_ai;" xmlns:graph="&ns_graphs;" xmlns="http://www.w3.org/2000/svg" xmlns:xlink="http://www.w3.org/1999/xlink" xmlns:a="http://ns.adobe.com/AdobeSVGViewerExtensions/3.0/" version="1.1" x="0px" y="0px" viewBox="0 0 433.3 84.5" xml:space="preserve"><metadata><?xpacket begin="﻿" id="W5M0MpCehiHzreSzNTczkc9d"?><?xpacket end="w"?></metadata><switch><g i:extraneous="self"><g id="Layer_1"><path fill="#FFFFFF" stroke="#FFFFFF" stroke-width="0.504" d="M193.8,18.9h9.3c2.2,0,3.6,0.3,4.9,1.2c2.2,1.4,3.3,3.3,3.3,5.9 c0,1.6-0.5,3-1.3,4c-0.5,0.6-1.3,1-2.7,1.4v0.2c0.6,0.4,0.8,0.6,1.1,1l4.6,6.9h-8.6l-3-6c-0.2-0.3-0.2-0.4-0.3-0.6l-0.1,0.1v6.6 h-7.3V18.9z M202,28c1.2,0,2-0.7,2-1.7s-0.7-1.8-1.7-1.8H201V28H202z"/><path fill="#FFFFFF" stroke="#FFFFFF" stroke-width="0.504" d="M221.5,39.4h-7.9l7.1-20.5h8.3l7.3,20.5h-7.9l-0.7-2.6H222 L221.5,39.4z M226.4,32l-1-3.9c-0.3-1.2-0.3-1.4-0.4-2.3h-0.3c-0.2,1.3-0.2,1.8-0.3,2.3l-1,3.9H226.4z"/><path fill="#FFFFFF" stroke="#FFFFFF" stroke-width="0.504" d="M238.3,18.9h7.5v20.5h-7.5V18.9z"/><path fill="#FFFFFF" stroke="#FFFFFF" stroke-width="0.504" d="M249.9,18.9h7.1l4.7,7.7c1,1.7,1.2,2.1,1.9,3.7h0.2 c-0.4-2-0.5-2.5-0.5-4.9l-0.1-6.5h7.1v20.5h-7.1l-5.1-8.1c-0.6-0.9-0.9-1.4-1.4-2.7h-0.2c0.3,1.9,0.4,2.8,0.4,3.8l0.1,7h-7.1 V18.9z"/><path fill="#FFFFFF" stroke="#FFFFFF" stroke-width="0.504" d="M274.6,18.9h13.7v5.9h-6.2v2.1h5.5v5.4h-5.5v7.2h-7.5V18.9z"/><path fill="#FFFFFF" stroke="#FFFFFF" stroke-width="0.504" d="M313.1,29.2c0,6.1-4.8,10.6-11.4,10.6c-6.6,0-11.3-4.3-11.3-10.5 c0-6.3,4.7-10.7,11.5-10.7C308.5,18.6,313.1,22.9,313.1,29.2z M298,29.2c0,2.3,1.6,3.9,3.8,3.9c2.2,0,3.8-1.6,3.8-3.9 c0-2.4-1.6-4-3.9-4C299.6,25.2,298,26.9,298,29.2z"/><path fill="#FFFFFF" stroke="#FFFFFF" stroke-width="0.504" d="M316.3,18.9h9.3c2.2,0,3.6,0.3,4.9,1.2c2.2,1.4,3.3,3.3,3.3,5.9 c0,1.6-0.5,3-1.3,4c-0.5,0.6-1.3,1-2.7,1.4v0.2c0.6,0.4,0.8,0.6,1.1,1l4.6,6.9h-8.6l-3-6c-0.2-0.3-0.2-0.4-0.3-0.6l-0.1,0.1v6.6 h-7.3V18.9z M324.6,28c1.2,0,2-0.7,2-1.7s-0.7-1.8-1.7-1.8h-1.3V28H324.6z"/><path fill="#FFFFFF" stroke="#FFFFFF" stroke-width="0.504" d="M338.2,18.9H352v5.6h-6.4v1.9h5.8v5.4h-5.8v2h6.6v5.6h-14.1V18.9z "/><path fill="#FFFFFF" stroke="#FFFFFF" stroke-width="0.504" d="M356.8,32l0.8,0.6c1.2,0.9,2.9,1.5,4.3,1.5c1.1,0,1.8-0.5,1.8-1.2 c0-0.6-0.4-0.9-1.4-1.1l-2.2-0.4c-3.1-0.6-5-2.6-5-5.5c0-4.3,3.8-7.5,9.1-7.5c2.3,0,4.1,0.5,6.3,1.8l-2,5.3 c-1.7-1.1-2.9-1.6-4.3-1.6c-1,0-1.6,0.4-1.6,1.1c0,0.5,0.4,0.8,1.2,1l2.4,0.5c3.3,0.7,5.1,2.8,5.1,5.8c0,4.3-3.7,7.3-8.9,7.3 c-2.6,0-5.3-0.6-7.9-1.9L356.8,32z"/><path fill="#FFFFFF" stroke="#FFFFFF" stroke-width="0.504" d="M376.9,25.3l-4.2,0.2v-6.7h15.7v6.7l-4.1-0.2v14.1h-7.3V25.3z"/><path fill="#FFFFFF" stroke="#FFFFFF" stroke-width="0.504" d="M158.2,68.6h-7.9l7.1-20.5h8.3l7.3,20.5h-7.9l-0.7-2.6h-5.7 L158.2,68.6z M163.2,61.1l-1-3.9c-0.3-1.2-0.3-1.4-0.4-2.3h-0.3c-0.2,1.3-0.2,1.8-0.3,2.3l-1,3.9H163.2z"/><path fill="#FFFFFF" stroke="#FFFFFF" stroke-width="0.504" d="M187.6,68c-1.1,0.5-3.4,0.8-5.3,0.8c-5.9,0-10.5-4.6-10.5-10.4 c0-6,4.7-10.7,10.7-10.7c1.8,0,3.6,0.3,5,0.8l0.2,7.8c-1.7-1.4-2.9-2.1-4.3-2.1c-2.3,0-4.1,1.8-4.1,4c0,2.2,1.8,4,4.1,4 c1.6,0,2.7-0.5,4.3-1.9L187.6,68z"/><path fill="#FFFFFF" stroke="#FFFFFF" stroke-width="0.504" d="M194.1,54.5l-4.2,0.2V48h15.7v6.7l-4.1-0.2v14.1h-7.3V54.5z"/><path fill="#FFFFFF" stroke="#FFFFFF" stroke-width="0.504" d="M208.6,48h7.5v20.5h-7.5V48z"/><path fill="#FFFFFF" stroke="#FFFFFF" stroke-width="0.504" d="M242,58.3c0,6.1-4.8,10.6-11.4,10.6c-6.6,0-11.3-4.3-11.3-10.5 c0-6.3,4.7-10.7,11.5-10.7C237.3,47.7,242,52,242,58.3z M226.8,58.3c0,2.3,1.6,3.9,3.8,3.9c2.2,0,3.8-1.6,3.8-3.9 c0-2.4-1.6-4-3.9-4C228.4,54.3,226.8,56,226.8,58.3z"/><path fill="#FFFFFF" stroke="#FFFFFF" stroke-width="0.504" d="M245.1,48h7.1l4.7,7.7c1,1.7,1.2,2.1,1.9,3.7h0.2 c-0.4-2-0.5-2.5-0.5-4.9l-0.1-6.5h7.1v20.5h-7.1l-5.1-8.1c-0.6-0.9-0.9-1.4-1.4-2.7h-0.2c0.3,1.9,0.4,2.8,0.4,3.8l0.1,7h-7.1V48z "/><path fill="#FFFFFF" stroke="#FFFFFF" stroke-width="0.504" d="M275.2,48h7.1l4.7,7.7c1,1.7,1.2,2.1,1.9,3.7h0.2 c-0.4-2-0.5-2.5-0.5-4.9l-0.1-6.5h7.1v20.5h-7.1l-5.1-8.1c-0.6-0.9-0.9-1.4-1.4-2.7h-0.2c0.3,1.9,0.4,2.8,0.4,3.8l0.1,7h-7.1V48z "/><path fill="#FFFFFF" stroke="#FFFFFF" stroke-width="0.504" d="M299.5,48h13.9v5.6H307v1.9h5.8v5.4H307v2h6.6v5.6h-14.1V48z"/><path fill="#FFFFFF" stroke="#FFFFFF" stroke-width="0.504" d="M320.7,54.5l-4.2,0.2V48h15.7v6.7l-4.1-0.2v14.1h-7.3V54.5z"/><path fill="#FFFFFF" stroke="#FFFFFF" stroke-width="0.504" d="M341.6,48l2.2,9.7c0.1,0.5,0.2,1,0.3,2.5h0.2 c0.2-1.7,0.3-2.5,0.5-3.4l2.2-8.8h5.7l2.4,9.4c0.2,0.6,0.2,1.3,0.4,2.9h0.2c0.1-1.6,0.2-2.4,0.5-3.3l2.1-9h7.8l-7.2,20.5h-6.5 l-1.9-8.4c-0.2-0.9-0.3-1.5-0.4-2.8h-0.2c-0.1,1.5-0.1,2.1-0.3,2.8l-2.1,8.4h-6.3L333.9,48H341.6z"/><path fill="#FFFFFF" stroke="#FFFFFF" stroke-width="0.504" d="M388.6,58.3c0,6.1-4.8,10.6-11.4,10.6c-6.6,0-11.3-4.3-11.3-10.5 c0-6.3,4.7-10.7,11.5-10.7C384,47.7,388.6,52,388.6,58.3z M373.5,58.3c0,2.3,1.6,3.9,3.8,3.9c2.2,0,3.8-1.6,3.8-3.9 c0-2.4-1.6-4-3.9-4C375.1,54.3,373.5,56,373.5,58.3z"/><path fill="#FFFFFF" stroke="#FFFFFF" stroke-width="0.504" d="M391,48h9.3c2.2,0,3.6,0.3,4.9,1.2c2.2,1.4,3.3,3.3,3.3,5.9 c0,1.6-0.5,3-1.3,4c-0.5,0.6-1.3,1-2.7,1.4v0.2c0.6,0.4,0.8,0.6,1.1,1l4.6,6.9h-8.6l-3-6c-0.2-0.3-0.2-0.4-0.3-0.6l-0.1,0.1v6.6 H391V48z M399.3,57.2c1.2,0,2-0.7,2-1.7c0-1-0.7-1.8-1.7-1.8h-1.3v3.5H399.3z"/><path fill="#FFFFFF" stroke="#FFFFFF" stroke-width="0.504" d="M412.2,48h7.2v5.6c0,1.7,0,1.9-0.2,3.3h0.2c0.2-0.7,0.4-1.2,0.9-2 c0.6-0.9,0.9-1.5,1-1.8L424,48h8.1l-6.4,10l7.1,10.5h-8.7l-3.4-5.9c-0.6-1-0.2-0.5-1-1.8c-0.3-0.6-0.3-0.5-0.4-0.9h-0.2 c0.1,0.8,0.2,1.2,0.2,2.9v5.7h-7.2V48z"/></g><g id="Layer_3"><path fill="#FFFFFF" stroke="#FFFFFF" stroke-width="0.504" d="M184,17.3c0.2,1.5,0.3,5.2,1.2,6.7c0.8,1.5,1.2,3.2,0.7,3.8 c-0.5,0.7-3.2,2.3-4.2,2.7s-1.7-0.5-2.3-0.3c-0.7,0.2-1.2,0.7-1.8,0.7c0.3-0.8,1.3-1.8,0.7-3c-0.7-1.2-3-2.8-4.2-3.2 c-1.2-0.3-2.8,0.5-3,1.7c-0.2,1.2,0.8,4.7,1,5.5c0.7,0,1.3,0.3,1.8,0.2c-0.5,1.3-1.5,1.3-1.8,1.8c-0.3,0.5-0.5,2.3-1.8,2.3 s-2.7-2.2-3.3-3.3c-0.7-1.2-2.8-4.7-4.2-5c-1.3-0.3-4.5,0.7-5.3,1.2c-0.8,0.5-2.8,1.7-4.3,1.8c-1.5,0.2-5.7,0.3-7,1 c-1.3,0.7-4.8,4.8-5.7,5.8c-0.8,1-5.2,4.3-5.5,5.2c-0.3,0.8-2.2,8-1,11.7c1.2,3.7,3.7,9,4.5,9.8c1.2,0,3.2,0.2,3.5,1.8 c1.3,0.3,2,1.8,1.8,2.5s-0.5,2-2,2.2s-2.7-0.3-3.3,0.3c-0.7,0.7-3.8-0.3-4.5-1.2c-0.7-0.8-1.7-1-2-2c-0.3-1,0-1.5-0.8-2 s-6.5-7.3-7.8-9.8c-1.3-2.5-4.8-8-4.5-10.7c0.3-2.7,0.5-1.5-2-2.3c-1.2-0.4-3.8-1-5-1c-1.2,0-4.5,0.3-5.2,0.7 c-0.7,0.3-3.2,4.7-4.3,5.7c-1.2,1-5.3,4.5-5.8,5.7s-0.8,3.5-0.2,3.5c0.7,0,2.3,0.8,2.8,1.3s2.5,0.5,2.5,1.3s-0.3,2-1.2,2.7 c-0.8,0.7-1.2,1.2-3.2,0.8s-4.4-0.3-5.5-0.7c-1.3-0.4-1.2-1.2-1.7-1.5s-1.3-1.3-1-2.3c0.3-1-0.5-2-1.2-2.7 c-0.7-0.7,0.2-1.3,0.7-2.7s3.2-7.7,3.3-9.5c0.2-1.8-0.3-1.1-2.2-1c-1,0.1-7.7,0.7-8.3,0.7c-0.7,0-1.5,1.8-2,2.5s-3.8,7-4.2,7.8 c-0.3,0.8,0.7,3.3,1.2,3.8s1.8,1.2,2.3,1.2s4.5,0.2,5.3,0.3c0.8,0.2,0.6,1.1,1.3,1.3c0.8,0.2,2,0.7,1.8,2 c-0.2,1.3-1.5,1.8-2.2,1.8c-0.7,0-1.8,0.3-2.3,1s-2.5,1-3.3,0.7c-0.8-0.3-2.7-2.5-3.8-2.8c-1.2-0.3-6.2-2-6.8-2.8 c-0.7-0.8-1.7-1.7-1.8-4.3c-0.2-2.7-0.8-3.8-1.2-4.7c-0.3-0.8-1.2-0.2-1.7,0.3c-0.5,0.5-4,4.3-5.2,5.2c-1.2,0.8-7.8,5.5-9.8,6.5 s-10.5,4.2-12.2,5.3c-1.7,1.2-5.2,4.8-6,6.7s0,1.6,1,1.7c0.8,0,2.1,0.6,2.5,1.5c0.3,0.8,1.1,0.9,1.3,1.7c0.3,1.1-0.9,1.2-1.8,1.7 s-1.5,0.9-2.1,1.3c-0.6,0.4-1.3,0.5-2,0.5s-1.8-0.6-2.3-0.7s-1.6-0.2-1.9-1.1c-0.3-0.8,0-2.8-0.7-3.7s-0.8-1.8-0.8-2.7 s1-3.3,2-4.5s2.8-4.2,3-5.2c0.2-1,0-3,1.2-3.5s4.8-2.3,6.2-3.8s4.2-6.7,5-10.8s4.2-15.2,5.3-17c-4.3,3.5-5.8,7.1-6.8,9.6 s-4.3,9.8-6.6,13.6s-5.8,9.3-9.9,12.4s-7.3,5.7-12.7,5.7S3,69.9,1.6,67.8s-2.2-6.7-0.3-9.7s6.8-7.2,8.3-7.7s3.2,0,3.3,1.5 c0.2,1.5-1,2.7-2,3.5s-5.7,4.4-4.7,7.5c1,3,3.7,3.3,5.7,3.3s5.3-1.7,8.7-5.3c3.3-3.7,6.8-8.5,10.5-16.2c3.7-7.7,6-12.8,8.7-16.2 c2.7-3.3,7.8-8.8,11-10.5S59,14.6,62,13.3c3-1.3,10.5-5.2,12.8-6C77.1,6.4,84,4.4,88,3.8c4-0.7,8.7,0.2,12.5,0.7 c3.8,0.5,10.3,1,14.2,0.5s6.7-1.8,8.8-3.2s4.7-1.5,6.7-1.5s8.8,1.5,11.7,2c2.8,0.5,10.5,0.7,12.2,0.5c1.7-0.2,7,0.2,9.3,0.7 c2.3,0.5,9.7,3.2,12.5,5.3C178.6,10.9,183.8,15.9,184,17.3z M176.2,17.9c-0.5,1.3,0.1,5.1,2.6,5.2s2.1-1.7,2-2.3l-0.5-0.4 c-0.1,1.6-2.7,1.4-3.7-2.2L176.2,17.9z"/></g></g></switch></svg>