<?xml version="1.0" encoding="UTF-8"?><svg xmlns="http://www.w3.org/2000/svg" width="195" height="55" viewBox="0 0 195 55" fill="none"><g id="Group 39749"><path id="Vector" d="M17.5835 27.5552L17.0088 27.9358C15.6006 28.8607 14.4169 29.8997 13.2904 31.1519L10.7556 28.2669C9.08858 26.402 9.02388 23.5742 10.7556 21.5913L17.4846 13.4541L24.2135 21.5913C25.9452 23.5742 25.8805 26.402 24.2135 28.2669L21.6787 31.1519C20.5522 29.8997 19.3723 28.8607 17.9603 27.9358L17.3856 27.5552" fill="white"/><path id="Vector_2" d="M47.3271 18.657C47.5821 20.343 48.7163 21.1993 50.3224 21.1993C51.9285 21.1993 52.9485 20.3849 52.9485 18.9576C52.9485 17.5304 52.2216 16.8605 49.8847 16.145C46.9389 15.2658 45.839 14.2725 45.839 12.2934C45.839 10.0326 47.5669 8.62061 50.1397 8.62061C53.1731 8.62061 54.4595 10.3637 54.6079 12.3619H52.7087C52.5032 11.026 51.7573 10.1582 50.0979 10.1582C48.5526 10.1582 47.7876 10.908 47.7876 12.1145C47.7876 13.321 48.4993 13.8272 50.6611 14.4742C54.0827 15.5056 54.9238 16.8263 54.9238 18.7407C54.9238 21.0243 53.3558 22.7446 50.2349 22.7446C47.3461 22.7446 45.6106 21.2108 45.4165 18.6608H47.3233L47.3271 18.657Z" fill="white"/><path id="Vector_3" d="M57.8239 17.8691C57.8125 19.753 58.6079 21.2488 60.3473 21.2488C61.9001 21.2488 62.3796 20.1755 62.5661 19.6617H64.3968C64.0314 21.0128 63 22.775 60.2711 22.775C57.0741 22.775 55.9399 20.3239 55.9399 17.4733C55.9399 14.9689 57.1731 12.2096 60.3701 12.2096C63.5671 12.2096 64.5529 14.6873 64.5529 17.0889C64.5529 17.1612 64.5452 17.7891 64.5338 17.8729H57.8277L57.8239 17.8691ZM62.7146 16.5484C62.6651 14.9309 62.0143 13.6863 60.3244 13.6863C58.4062 13.6863 57.9457 15.3952 57.862 16.5484H62.7146Z" fill="white"/><path id="Vector_4" d="M73.569 20.2514C73.569 20.9517 73.6299 22.0097 73.7212 22.5845H72.0466C71.9781 22.2419 71.9058 21.6786 71.8982 21.0773C71.5024 22.063 70.4862 22.7633 68.8648 22.7633C66.3719 22.7633 65.5879 21.1077 65.5879 19.6729C65.5879 18.082 66.6307 16.4188 70.254 16.4188H71.7421V15.4787C71.7421 14.5386 71.4719 13.61 69.8468 13.61C68.4233 13.61 67.9552 14.276 67.7992 15.3265H65.9875C66.1321 13.6404 67.1103 12.2056 69.9001 12.2056C72.0809 12.2056 73.5728 13.0543 73.5728 15.414V20.2514H73.569ZM71.7954 17.7204H70.254C67.9133 17.7204 67.4718 18.6719 67.4718 19.5511C67.4718 20.4836 68.0351 21.2638 69.2683 21.2638C71.1903 21.2638 71.7916 19.9697 71.7916 17.9297V17.7204H71.7954Z" fill="white"/><path id="Vector_5" d="M76.0092 15.8594C76.0092 14.2267 75.9977 12.9479 75.9673 12.4074H77.7865C77.8246 12.8794 77.8322 13.5302 77.8322 14.417C78.2813 13.2333 79.3622 12.2476 81.0825 12.2247V14.1467C78.8294 14.2076 77.8589 15.4294 77.8589 17.652V22.5846H76.0015V15.8594H76.0092Z" fill="white"/><path id="Vector_6" d="M89.8171 19.2771C89.4289 21.279 88.1615 22.7747 85.6572 22.7747C82.7456 22.7747 81.2993 20.8718 81.2993 17.4806C81.2993 14.493 82.8407 12.2056 85.7713 12.2056C88.7019 12.2056 89.6801 14.1733 89.8057 15.806H87.9369C87.7581 14.6985 87.1605 13.7051 85.7333 13.7051C83.9673 13.7051 83.2099 15.2618 83.2099 17.4388C83.2099 20.004 84.1081 21.2866 85.7066 21.2866C87.0654 21.2866 87.6248 20.4379 87.956 19.2771H89.8171Z" fill="white"/><path id="Vector_7" d="M93.2802 8.02686V13.8233C93.7711 12.8719 94.7569 12.2058 96.2717 12.2058C97.7864 12.2058 99.4725 13.0241 99.4725 15.8634V22.5809H97.6342V16.1716C97.6342 14.7063 97.0709 13.8043 95.6361 13.8043C94.068 13.8043 93.2802 14.851 93.2802 16.8034V22.5809H91.4229V8.02686H93.2802Z" fill="white"/><path id="Vector_8" d="M106.612 22.5846V13.9108H105.079V12.4074H106.612V11.2009C106.612 9.36262 107.301 7.8783 109.444 7.8783C109.783 7.8783 110.198 7.92397 110.437 8.01531V9.56054C110.236 9.51106 109.954 9.48061 109.638 9.48061C108.774 9.48061 108.462 10.0591 108.462 11.1514V12.4112H110.319V13.9146H108.462V22.5884H106.612V22.5846Z" fill="white"/><path id="Vector_9" d="M119.713 17.3322C119.713 20.2856 118.396 22.7595 115.104 22.7595C111.812 22.7595 110.617 20.1677 110.617 17.3817C110.617 14.5957 112.074 12.2056 115.233 12.2056C118.191 12.2056 119.717 14.4321 119.717 17.3322M112.527 17.355C112.527 19.6653 113.441 21.2371 115.207 21.2371C116.973 21.2371 117.806 19.6995 117.806 17.3436C117.806 15.1704 116.927 13.7318 115.146 13.7318C113.365 13.7318 112.527 15.2123 112.527 17.3589" fill="white"/><path id="Vector_10" d="M121.486 15.8594C121.486 14.2267 121.475 12.9479 121.444 12.4074H123.264C123.302 12.8794 123.309 13.5302 123.309 14.417C123.758 13.2333 124.839 12.2476 126.56 12.2247V14.1467C124.306 14.2076 123.336 15.4294 123.336 17.652V22.5846H121.479V15.8594H121.486Z" fill="white"/><path id="Vector_11" d="M56.9147 36.0997C56.5417 38.7982 54.8062 40.9029 51.0611 40.9029C46.4368 40.9029 44.8916 37.6754 44.8916 33.8314C44.8916 29.9873 46.8669 26.718 51.1943 26.718C55.5217 26.718 56.7434 29.3441 56.85 31.4526H53.1468C52.9488 30.4136 52.6101 29.4888 51.1372 29.4888C49.3712 29.4888 48.8041 31.308 48.8041 33.82C48.8041 36.3319 49.3788 38.1359 51.141 38.1359C52.6253 38.1359 53.0212 37.0398 53.2 36.1035H56.9147V36.0997Z" fill="white"/><path id="Vector_12" d="M68.0162 35.2662C68.0162 38.2273 66.5699 40.8686 62.6498 40.8686C58.7296 40.8686 57.3823 38.155 57.3823 35.3271C57.3823 33.0131 58.6193 29.9379 62.783 29.9379C66.9467 29.9379 68.0162 32.7809 68.0162 35.2662ZM61.135 35.2967C61.135 37.4547 61.6526 38.3605 62.7526 38.3605C63.7726 38.3605 64.2825 37.428 64.2825 35.3119C64.2825 33.1958 63.8106 32.465 62.6955 32.465C61.6755 32.465 61.1388 33.3328 61.1388 35.2967" fill="white"/><path id="Vector_13" d="M68.9185 33.4203C68.9185 31.1672 68.9071 30.6382 68.8843 30.1586H72.4391C72.4923 30.4973 72.519 30.9388 72.5304 31.2738C73.1241 30.4669 73.9957 29.9379 75.3963 29.9379C76.8844 29.9379 77.6152 30.6496 77.9691 31.4108C78.4487 30.6876 79.4915 29.9379 81.0824 29.9379C83.0273 29.9379 84.4393 31.1215 84.4393 33.6829V40.6479H80.8464V34.1016C80.8464 33.3594 80.5952 32.6896 79.7579 32.6896C78.8597 32.6896 78.4982 33.329 78.4982 34.5583V40.6479H74.8977V34.0407C74.8977 33.2947 74.5704 32.701 73.8168 32.701C72.9567 32.701 72.5418 33.2148 72.5418 34.6839V40.6441H68.9223V33.4165L68.9185 33.4203Z" fill="white"/><path id="Vector_14" d="M86.2315 33.4203C86.2315 31.1672 86.2163 30.6382 86.1973 30.1586H89.752C89.8053 30.4973 89.832 30.9388 89.8434 31.2738C90.4371 30.4669 91.3087 29.9379 92.7093 29.9379C94.1974 29.9379 94.9282 30.6496 95.2821 31.4108C95.7617 30.6876 96.8045 29.9379 98.3954 29.9379C100.34 29.9379 101.752 31.1215 101.752 33.6829V40.6479H98.1594V34.1016C98.1594 33.3594 97.912 32.6896 97.0709 32.6896C96.1727 32.6896 95.8112 33.329 95.8112 34.5583V40.6479H92.2107V34.0407C92.2107 33.2947 91.8834 32.701 91.1298 32.701C90.2697 32.701 89.8548 33.2148 89.8548 34.6839V40.6441H86.2353V33.4165L86.2315 33.4203Z" fill="white"/><path id="Vector_15" d="M113.673 35.2662C113.673 38.2273 112.227 40.8686 108.307 40.8686C104.386 40.8686 103.039 38.155 103.039 35.3271C103.039 33.0131 104.272 29.9379 108.436 29.9379C112.6 29.9379 113.669 32.7809 113.669 35.2662M106.788 35.2967C106.788 37.4547 107.306 38.3605 108.405 38.3605C109.425 38.3605 109.935 37.428 109.935 35.3119C109.935 33.1958 109.464 32.465 108.348 32.465C107.328 32.465 106.792 33.3328 106.792 35.2967" fill="white"/><path id="Vector_16" d="M114.974 33.4393C114.974 31.2737 114.963 30.6305 114.94 30.1585H118.521C118.559 30.345 118.609 30.9463 118.613 31.3308C119.069 30.6 120.009 29.934 121.471 29.934C123.633 29.934 124.71 31.3916 124.71 33.6714V40.644H121.049V34.2804C121.049 33.287 120.832 32.6933 119.914 32.6933C119.073 32.6933 118.636 33.1462 118.636 34.6039V40.644H114.974V33.4393Z" fill="white"/><path id="Vector_17" d="M141.091 40.6438H138.431C138.343 40.2671 138.244 39.6657 138.21 39.2699C137.49 40.4992 136.181 40.8988 134.514 40.8988C130.545 40.8988 128.881 37.6371 128.881 33.9491C128.881 29.8767 131.112 26.714 135.416 26.714C139.203 26.714 140.855 28.7388 141.11 31.0414H137.407C137.22 30.3411 136.821 29.4885 135.306 29.4885C133.464 29.4885 132.794 31.2926 132.794 33.8997C132.794 36.5068 133.49 38.1357 135.332 38.1357C136.904 38.1357 137.384 36.9977 137.384 35.6656V35.5629H135.176V32.834H141.091V40.6438Z" fill="white"/><path id="Vector_18" d="M142.937 33.7173C142.937 31.9475 142.937 30.7829 142.903 30.1549H146.469C146.515 30.5584 146.549 31.4489 146.534 32.0351C146.88 31.0227 147.797 29.9608 149.598 29.9608V33.4242C147.386 33.3786 146.595 34.0142 146.595 36.214V40.6404H142.933V33.7135L142.937 33.7173Z" fill="white"/><path id="Vector_19" d="M160.284 35.2662C160.284 38.2273 158.842 40.8686 154.918 40.8686C150.994 40.8686 149.65 38.155 149.65 35.3271C149.65 33.0131 150.884 29.9379 155.047 29.9379C159.211 29.9379 160.28 32.7809 160.28 35.2662M153.399 35.2967C153.399 37.4547 153.917 38.3605 155.017 38.3605C156.037 38.3605 156.547 37.428 156.547 35.3119C156.547 33.1958 156.079 32.465 154.96 32.465C153.94 32.465 153.403 33.3328 153.403 35.2967" fill="white"/><path id="Vector_20" d="M171.158 37.4053C171.158 39.0989 171.17 40.0847 171.192 40.6441H167.626C167.565 40.3663 167.539 39.8753 167.527 39.5214C166.854 40.5109 165.997 40.8535 164.68 40.8535C162.503 40.8535 161.483 39.5176 161.483 37.2074V30.1587H165.137V36.6365C165.137 37.5347 165.419 38.0751 166.222 38.0751C167.063 38.0751 167.493 37.5423 167.493 36.1721V30.1587H171.162V37.4053H171.158Z" fill="white"/><path id="Vector_21" d="M172.955 33.4393C172.955 31.2737 172.939 30.6305 172.92 30.1585H176.502C176.54 30.345 176.589 30.9463 176.593 31.3308C177.05 30.6 177.99 29.934 179.451 29.934C181.613 29.934 182.69 31.3916 182.69 33.6714V40.644H179.029V34.2804C179.029 33.287 178.808 32.6933 177.895 32.6933C177.054 32.6933 176.616 33.1462 176.616 34.6039V40.644H172.955V33.4393Z" fill="white"/><path id="Vector_22" d="M194.291 26.208V37.5498C194.291 38.958 194.306 40.0694 194.325 40.6441H190.778C190.74 40.4005 190.679 39.9133 190.672 39.5898C190.143 40.3929 189.397 40.8648 187.844 40.8648C185.126 40.8648 183.931 38.4442 183.931 35.4451C183.931 32.2024 185.583 29.9379 188.38 29.9379C189.659 29.9379 190.371 30.3375 190.641 30.7599V26.208H194.295H194.291ZM187.665 35.2891C187.665 37.2339 188.106 38.2273 189.229 38.2273C190.542 38.2273 190.786 37.3253 190.786 35.3005C190.786 33.2757 190.546 32.5602 189.301 32.5602C188.297 32.5602 187.665 33.3785 187.665 35.2891Z" fill="white"/><path id="Vector_23" d="M46.8855 46.5623H44.8188V45.8049H49.8427V46.5623H47.7685V52.865H46.8855V46.5623Z" fill="white"/><path id="Vector_24" d="M49.8618 49.4394C49.8618 48.6135 49.8542 47.9361 49.8428 47.6811H50.6763C50.6953 47.9247 50.6991 48.2558 50.6991 48.7315C50.9427 48.0883 51.5136 47.5974 52.3775 47.5859V48.4689C51.2129 48.5108 50.7143 49.1959 50.7143 50.3148V52.8648H49.8694V49.4394H49.8618Z" fill="white"/><path id="Vector_25" d="M57.1653 51.3958C57.1653 52.0428 57.1768 52.6137 57.1844 52.8611H56.3661C56.3356 52.7165 56.3242 52.4006 56.3204 52.0352C56.0844 52.5947 55.5592 52.9524 54.798 52.9524C53.9874 52.9524 53.2109 52.5642 53.2109 51.1674V47.6774H54.0559V51.0038C54.0559 51.6736 54.269 52.2217 55.0568 52.2217C55.799 52.2217 56.3052 51.7231 56.3052 50.5775V47.6774H57.1653V51.3958Z" fill="white"/><path id="Vector_26" d="M59.0759 51.3654C59.1748 51.963 59.6163 52.2941 60.2405 52.2941C60.956 52.2941 61.2377 51.9135 61.2377 51.472C61.2377 51.0039 60.9066 50.7565 60.0274 50.5205C58.7638 50.178 58.4289 49.7174 58.4289 49.021C58.4289 48.3245 58.897 47.5785 60.1682 47.5785C61.4394 47.5785 61.9075 48.2712 61.9722 49.0704H61.1425C61.0588 48.648 60.838 48.2407 60.1301 48.2407C59.544 48.2407 59.2738 48.5262 59.2738 48.9524C59.2738 49.3407 59.4679 49.55 60.3433 49.7783C61.6639 50.1285 62.0826 50.5776 62.0826 51.4035C62.0826 52.3664 61.3214 52.9601 60.2063 52.9601C59.0911 52.9601 58.3299 52.4539 58.231 51.3692H59.0683L59.0759 51.3654Z" fill="white"/><path id="Vector_27" d="M62.5894 47.6775H63.4191V46.1703H64.264V47.6775H65.3106V48.3739H64.264V51.6166C64.264 52.0505 64.3705 52.2332 64.812 52.2332C64.9567 52.2332 65.1013 52.2218 65.2155 52.1989V52.8345C65.0138 52.9069 64.7169 52.9221 64.538 52.9221C63.7844 52.9221 63.4191 52.6328 63.4191 51.7727V48.3701H62.5894V47.6736V47.6775Z" fill="white"/><path id="Vector_28" d="M65.9609 54.0678C66.1817 53.6567 66.5509 52.5911 66.608 51.4417H67.43C67.3844 52.4578 67.0494 53.4931 66.6612 54.0678H65.9609Z" fill="white"/><path id="Vector_29" d="M75.8641 50.8097C75.6548 51.9325 74.9202 52.9677 73.2608 52.9677C71.1942 52.9677 70.4102 51.3996 70.4102 49.2873C70.4102 47.43 71.3084 45.7097 73.3103 45.7097C74.9316 45.7097 75.6967 46.6955 75.8299 47.8867H74.9507C74.7718 47.0608 74.3303 46.4519 73.2761 46.4519C71.8831 46.4519 71.316 47.803 71.316 49.2911C71.316 50.7793 71.7689 52.2332 73.2837 52.2332C74.3341 52.2332 74.768 51.6128 74.9887 50.8135H75.8641V50.8097Z" fill="white"/><path id="Vector_30" d="M81.3523 50.1856C81.3523 51.6851 80.6939 52.9525 79.0345 52.9525C77.3751 52.9525 76.7852 51.6357 76.7852 50.2122C76.7852 48.7888 77.5311 47.5785 79.0992 47.5785C80.5683 47.5785 81.3485 48.6936 81.3485 50.1894M77.6567 50.2046C77.6567 51.3997 78.1439 52.2484 79.084 52.2484C80.024 52.2484 80.4731 51.4187 80.4731 50.1932C80.4731 49.0666 80.005 48.2864 79.0573 48.2864C78.1096 48.2864 77.6605 49.078 77.6605 50.2046" fill="white"/><path id="Vector_31" d="M83.385 45.4166H82.54V52.8649H83.385V45.4166Z" fill="white"/><path id="Vector_32" d="M85.7746 45.4166H84.9297V52.8649H85.7746V45.4166Z" fill="white"/><path id="Vector_33" d="M90.9397 51.7119C90.9397 52.0697 90.974 52.5873 91.0197 52.8613H90.247C90.2128 52.6825 90.1747 52.4008 90.1709 52.0583C89.973 52.5797 89.4478 52.9527 88.6029 52.9527C87.3355 52.9527 86.9473 52.1002 86.9473 51.3808C86.9473 50.6006 87.4497 49.7328 89.307 49.7328H90.1024V49.2305C90.1024 48.7395 89.9616 48.2295 89.0824 48.2295C88.3288 48.2295 88.0662 48.5758 87.9787 49.1467H87.1528C87.2289 48.279 87.7313 47.571 89.1129 47.571C90.1976 47.571 90.9397 48.0087 90.9397 49.1886V51.7081V51.7119ZM90.1291 50.3494H89.307C88.051 50.3494 87.815 50.8594 87.815 51.3313C87.815 51.8375 88.1233 52.2562 88.7741 52.2562C89.7941 52.2562 90.1291 51.5711 90.1291 50.456V50.3494Z" fill="white"/><path id="Vector_34" d="M92.4774 45.4166H93.3224V48.3967C93.5469 47.9819 94.0265 47.5746 94.8752 47.5746C96.135 47.5746 96.8657 48.6098 96.8657 50.1094C96.8657 51.6851 96.1997 52.9563 94.7191 52.9563C93.9237 52.9563 93.5088 52.6137 93.3147 52.2065C93.3147 52.4158 93.2995 52.648 93.2805 52.8649H92.4546C92.466 52.5757 92.4736 52.0352 92.4736 51.3958V45.4166H92.4774ZM95.9979 50.1436C95.9979 49.0475 95.5641 48.313 94.6659 48.313C93.6421 48.313 93.2729 48.9752 93.2729 50.2045C93.2729 51.4339 93.5621 52.2217 94.6392 52.2217C95.5679 52.2217 95.9941 51.3616 95.9941 50.1436" fill="white"/><path id="Vector_35" d="M102.278 50.1856C102.278 51.6851 101.619 52.9525 99.9637 52.9525C98.3081 52.9525 97.7144 51.6357 97.7144 50.2122C97.7144 48.7888 98.4603 47.5785 100.028 47.5785C101.497 47.5785 102.278 48.6936 102.278 50.1894M98.5859 50.2046C98.5859 51.3997 99.0731 52.2484 100.013 52.2484C100.953 52.2484 101.402 51.4187 101.402 50.1932C101.402 49.0666 100.934 48.2864 99.9865 48.2864C99.0388 48.2864 98.5897 49.078 98.5897 50.2046" fill="white"/><path id="Vector_36" d="M103.461 49.4394C103.461 48.6135 103.454 47.9361 103.442 47.6811H104.276C104.291 47.9247 104.295 48.2558 104.295 48.7315C104.538 48.0883 105.109 47.5974 105.973 47.5859V48.4689C104.809 48.5108 104.31 49.1959 104.31 50.3148V52.8648H103.465V49.4394H103.461Z" fill="white"/><path id="Vector_37" d="M110.4 51.7119C110.4 52.0697 110.434 52.5873 110.48 52.8613H109.707C109.673 52.6825 109.635 52.4008 109.631 52.0583C109.433 52.5797 108.908 52.9527 108.063 52.9527C106.795 52.9527 106.407 52.1002 106.407 51.3808C106.407 50.6006 106.91 49.7328 108.767 49.7328H109.562V49.2305C109.562 48.7395 109.422 48.2295 108.542 48.2295C107.789 48.2295 107.526 48.5758 107.439 49.1467H106.613C106.689 48.279 107.191 47.571 108.569 47.571C109.654 47.571 110.396 48.0087 110.396 49.1886V51.7081L110.4 51.7119ZM109.589 50.3494H108.767C107.511 50.3494 107.275 50.8594 107.275 51.3313C107.275 51.8375 107.583 52.2562 108.234 52.2562C109.254 52.2562 109.589 51.5711 109.589 50.456V50.3494Z" fill="white"/><path id="Vector_38" d="M111.172 47.6775H112.002V46.1703H112.843V47.6775H113.89V48.3739H112.843V51.6166C112.843 52.0505 112.954 52.2332 113.395 52.2332C113.54 52.2332 113.684 52.2218 113.798 52.1989V52.8345C113.597 52.9069 113.3 52.9221 113.121 52.9221C112.367 52.9221 112.002 52.6328 112.002 51.7727V48.3701H111.172V47.6736V47.6775Z" fill="white"/><path id="Vector_39" d="M114.849 45.4166H115.694V46.5166H114.849V45.4166ZM114.849 47.6774H115.694V52.8611H114.849V47.6774Z" fill="white"/><path id="Vector_40" d="M121.452 50.1856C121.452 51.6851 120.793 52.9525 119.134 52.9525C117.475 52.9525 116.885 51.6357 116.885 50.2122C116.885 48.7888 117.631 47.5785 119.199 47.5785C120.668 47.5785 121.448 48.6936 121.448 50.1894M117.756 50.2046C117.756 51.3997 118.244 52.2484 119.184 52.2484C120.124 52.2484 120.573 51.4187 120.573 50.1932C120.573 49.0666 120.105 48.2864 119.157 48.2864C118.209 48.2864 117.76 49.078 117.76 50.2046" fill="white"/><path id="Vector_41" d="M122.636 49.3025C122.636 48.2216 122.624 47.9019 122.617 47.6811H123.45C123.465 47.7801 123.488 48.2786 123.481 48.4956C123.694 48.0313 124.162 47.5822 125.011 47.5822C125.97 47.5822 126.662 48.1226 126.662 49.5232V52.8687H125.81V49.6564C125.81 48.9028 125.555 48.3243 124.782 48.3243C123.857 48.3243 123.488 49.0094 123.488 50.0979V52.8687H122.643V49.3063L122.636 49.3025Z" fill="white"/><path id="Vector_42" d="M127.42 54.0678C127.644 53.6567 128.01 52.5911 128.067 51.4417H128.889C128.84 52.4578 128.508 53.4931 128.12 54.0678H127.42Z" fill="white"/><path id="Vector_43" d="M132.645 45.8049H135.108C136.379 45.8049 137.171 46.4558 137.171 47.5481C137.171 48.4843 136.592 48.884 136.162 49.021C136.649 49.1922 137.395 49.649 137.395 50.7755C137.395 52.1267 136.413 52.865 135.017 52.865H132.642V45.8049H132.645ZM134.906 48.7165C135.911 48.7165 136.303 48.3093 136.303 47.6128C136.303 46.9658 135.88 46.5052 134.975 46.5052H133.506V48.7165H134.902H134.906ZM133.509 52.1685H134.952C135.842 52.1685 136.508 51.7422 136.508 50.7908C136.508 49.942 135.968 49.4244 134.864 49.4244H133.509V52.1647V52.1685Z" fill="white"/><path id="Vector_44" d="M138.571 49.4394C138.571 48.6135 138.564 47.9361 138.552 47.6811H139.386C139.405 47.9247 139.405 48.2558 139.405 48.7315C139.648 48.0883 140.219 47.5974 141.083 47.5859V48.4689C139.919 48.5108 139.42 49.1959 139.42 50.3148V52.8648H138.575V49.4394H138.571Z" fill="white"/><path id="Vector_45" d="M142.457 50.433C142.45 51.472 142.895 52.256 143.808 52.256C144.642 52.256 144.897 51.6699 144.996 51.3997H145.833C145.662 52.0467 145.156 52.9639 143.77 52.9639C142.149 52.9639 141.597 51.6889 141.597 50.2579C141.597 48.9867 142.221 47.5785 143.816 47.5785C145.411 47.5785 145.913 48.8459 145.913 50.041C145.913 50.0714 145.913 50.4025 145.906 50.433H142.457ZM145.076 49.8126C145.049 48.9296 144.695 48.2674 143.797 48.2674C142.769 48.2674 142.526 49.196 142.48 49.8126H145.076Z" fill="white"/><path id="Vector_46" d="M150.712 51.7119C150.712 52.0697 150.746 52.5873 150.792 52.8613H150.02C149.985 52.6825 149.947 52.4008 149.943 52.0583C149.745 52.5797 149.22 52.9527 148.375 52.9527C147.108 52.9527 146.72 52.1002 146.72 51.3808C146.72 50.6006 147.222 49.7328 149.079 49.7328H149.875V49.2305C149.875 48.7395 149.734 48.2295 148.855 48.2295C148.101 48.2295 147.839 48.5758 147.751 49.1467H146.925C147.001 48.279 147.504 47.571 148.882 47.571C149.966 47.571 150.708 48.0087 150.708 49.1886V51.7081L150.712 51.7119ZM149.902 50.3494H149.079C147.823 50.3494 147.587 50.8594 147.587 51.3313C147.587 51.8375 147.896 52.2562 148.547 52.2562C149.563 52.2562 149.902 51.5711 149.902 50.456V50.3494Z" fill="white"/><path id="Vector_47" d="M153.107 50.1018C153.582 49.5727 154.625 48.4195 155.246 47.6812H156.235C155.664 48.3358 155.029 48.9904 154.424 49.6565C155.051 50.646 155.801 51.8601 156.437 52.8649H155.451C155.036 52.176 154.313 50.981 153.853 50.2274C153.712 50.3796 153.251 50.8363 153.107 50.9848V52.8649H152.262V45.4166H153.107V50.098V50.1018Z" fill="white"/><path id="Vector_48" d="M156.604 47.6775H157.434V46.1703H158.275V47.6775H159.321V48.3739H158.275V51.6166C158.275 52.0505 158.385 52.2332 158.827 52.2332C158.971 52.2332 159.116 52.2218 159.23 52.1989V52.8345C159.028 52.9069 158.732 52.9221 158.553 52.9221C157.799 52.9221 157.434 52.6328 157.434 51.7727V48.3701H156.604V47.6736V47.6775Z" fill="white"/><path id="Vector_49" d="M161.076 45.4166V48.4233C161.327 47.9248 161.841 47.5746 162.621 47.5746C163.402 47.5746 164.25 47.9666 164.25 49.4357V52.8649H163.409V49.5842C163.409 48.7925 163.097 48.3206 162.34 48.3206C161.506 48.3206 161.072 48.8763 161.072 49.9077V52.8649H160.228V45.4166H161.072H161.076Z" fill="white"/><path id="Vector_50" d="M165.792 49.4394C165.792 48.6135 165.784 47.9361 165.773 47.6811H166.606C166.625 47.9247 166.625 48.2558 166.625 48.7315C166.869 48.0883 167.44 47.5974 168.304 47.5859V48.4689C167.139 48.5108 166.641 49.1959 166.641 50.3148V52.8648H165.796V49.4394H165.792Z" fill="white"/><path id="Vector_51" d="M173.377 50.1856C173.377 51.6851 172.719 52.9525 171.059 52.9525C169.4 52.9525 168.81 51.6357 168.81 50.2122C168.81 48.7888 169.556 47.5785 171.124 47.5785C172.593 47.5785 173.373 48.6936 173.373 50.1894M169.682 50.2046C169.682 51.3997 170.169 52.2484 171.109 52.2484C172.049 52.2484 172.498 51.4187 172.498 50.1932C172.498 49.0666 172.03 48.2864 171.082 48.2864C170.135 48.2864 169.685 49.078 169.685 50.2046" fill="white"/><path id="Vector_52" d="M178.492 51.3958C178.492 52.0428 178.503 52.6137 178.511 52.8611H177.693C177.662 52.7165 177.651 52.4006 177.647 52.0352C177.411 52.5947 176.886 52.9524 176.125 52.9524C175.314 52.9524 174.538 52.5642 174.538 51.1674V47.6774H175.383V51.0038C175.383 51.6736 175.596 52.2217 176.383 52.2217C177.122 52.2217 177.632 51.7231 177.632 50.5775V47.6774H178.492V51.3958Z" fill="white"/><path id="Vector_53" d="M184.038 52.4692C184.038 54.0867 183.391 55.0001 181.815 55.0001C180.239 55.0001 179.844 54.1895 179.767 53.4511H180.609C180.723 54.0258 181.187 54.3074 181.849 54.3074C182.961 54.3074 183.216 53.5805 183.216 52.4501V52.0239C182.949 52.6024 182.496 52.8764 181.693 52.8764C180.475 52.8764 179.688 51.8602 179.688 50.2503C179.688 48.6404 180.62 47.5785 181.811 47.5785C182.63 47.5785 183.056 47.9134 183.193 48.3168C183.193 48.0961 183.219 47.7992 183.235 47.6813H184.064C184.053 47.9286 184.042 48.4767 184.042 49.1846V52.473L184.038 52.4692ZM180.563 50.2389C180.563 51.4416 181.073 52.138 181.895 52.138C182.885 52.138 183.235 51.5215 183.235 50.216C183.235 48.9106 182.945 48.3168 181.941 48.3168C181.08 48.3168 180.567 49.0362 180.567 50.2389" fill="white"/><path id="Vector_54" d="M186.397 45.4166V48.4233C186.648 47.9248 187.162 47.5746 187.942 47.5746C188.723 47.5746 189.571 47.9666 189.571 49.4357V52.8649H188.734V49.5842C188.734 48.7925 188.422 48.3206 187.668 48.3206C186.835 48.3206 186.401 48.8763 186.401 49.9077V52.8649H185.556V45.4166H186.401H186.397Z" fill="white"/><path id="Vector_55" d="M191.432 51.3654C191.531 51.963 191.973 52.2941 192.597 52.2941C193.312 52.2941 193.594 51.9135 193.594 51.472C193.594 51.0039 193.263 50.7565 192.384 50.5205C191.12 50.178 190.785 49.7174 190.785 49.021C190.785 48.3245 191.253 47.5785 192.525 47.5785C193.796 47.5785 194.264 48.2712 194.329 49.0704H193.499C193.415 48.648 193.194 48.2407 192.487 48.2407C191.9 48.2407 191.63 48.5262 191.63 48.9524C191.63 49.3407 191.824 49.55 192.7 49.7783C194.02 50.1285 194.439 50.5776 194.439 51.4035C194.439 52.3664 193.678 52.9601 192.563 52.9601C191.448 52.9601 190.686 52.4539 190.587 51.3692H191.425L191.432 51.3654Z" fill="white"/><path id="Vector_56" d="M7.20456 28.3544C5.30919 26.3334 5.38912 23.3876 7.25024 21.4465L15.6881 11.2655L11.9011 6.67554L2.2568 18.3332C-0.864096 22.3181 -0.639543 27.8101 2.26061 31.5247L17.5226 48.8647L21.3932 44.4726L7.20456 28.3544Z" fill="#FDBB00"/><path id="Vector_57" d="M27.7341 21.5418C29.6295 23.5628 29.5495 26.5086 27.7341 28.4953L19.3419 38.0217L23.2697 42.3757L32.7275 31.6124C35.8066 27.5819 35.582 22.0937 32.678 18.379L17.4922 0L13.7129 4.57478L27.7303 21.5418H27.7341Z" fill="#FDBB00"/></g></svg>