<svg width="32" height="32" viewBox="0 0 32 32" fill="none" xmlns="http://www.w3.org/2000/svg">
<circle cx="16" cy="16" r="15.5" stroke="#ECF9EC"/>
<path d="M14.5638 9.07167L15.3771 8.2583C15.7215 7.9139 16.2785 7.9139 16.6192 8.2583L23.7417 15.3771C24.0861 15.7215 24.0861 16.2785 23.7417 16.6192L16.6192 23.7417C16.2748 24.0861 15.7179 24.0861 15.3771 23.7417L14.5638 22.9283C14.2157 22.5803 14.223 22.0124 14.5784 21.6716L18.9934 17.4655L8.46348 17.4655C7.97619 17.4655 7.58415 17.0735 7.58415 16.5862L7.58415 15.4138C7.58415 14.9265 7.97619 14.5345 8.46348 14.5345L18.9934 14.5345L14.5784 10.3284C14.2194 9.98763 14.212 9.41974 14.5638 9.07167Z" fill="#ECF9EC"/>
</svg>
